<svg xmlns="http://www.w3.org/2000/svg" viewBox="0 0 55 55" fill="none">
    <g clip-path="url(#clip0_1301_85)">
        <path d="M46.4062 0H8.59375C3.84755 0 0 3.84755 0 8.59375V46.4062C0 51.1524 3.84755 55 8.59375 55H46.4062C51.1524 55 55 51.1524 55 46.4062V8.59375C55 3.84755 51.1524 0 46.4062 0Z" fill="#00B1FF"/>
        <path d="M27.5 12.2847C17.8446 12.2697 8.35698 14.8091 0 19.6453L0 44C0 46.9174 1.15893 49.7152 3.22183 51.7781C5.28473 53.841 8.08262 55 11 55H44C46.9174 55 49.7153 53.841 51.7782 51.7781C53.8411 49.7152 55 46.9174 55 44V19.6453C46.643 14.8091 37.1554 12.2697 27.5 12.2847Z" fill="#008EFF"/>
        <path d="M0 42H55V47C55 51.4183 51.4183 55 47 55H8C3.58172 55 0 51.4183 0 47V42Z" fill="#0068FF"/>
        <path d="M27.5 33.0666C17.8447 33.0526 8.35737 35.5919 0 40.4271L0 44C0 46.9174 1.15893 49.7153 3.22183 51.7782C5.28473 53.8411 8.08262 55 11 55H44C46.9174 55 49.7153 53.8411 51.7782 51.7782C53.8411 49.7153 55 46.9174 55 44V40.4271C46.6426 35.5919 37.1553 33.0526 27.5 33.0666Z" fill="#0068FF"/>
        <path d="M44.0795 25.5921L38.0016 16.8759C37.864 16.6585 37.6737 16.4794 37.4483 16.3553C37.2229 16.2312 36.9698 16.1661 36.7125 16.1661C36.4552 16.1661 36.2021 16.2312 35.9767 16.3553C35.7513 16.4794 35.561 16.6585 35.4234 16.8759L29.3777 25.5921C28.9094 26.2367 29.3477 27.2292 30.0867 27.2292H32.4715C32.4049 32.3167 32.4049 38.7835 24.5824 43.9484C24.3805 44.1009 24.4814 44.4468 24.7178 44.4081C39.6881 41.7677 40.8977 30.3273 40.932 27.2572H43.3984C44.1375 27.2185 44.5436 26.2259 44.073 25.5706L44.0795 25.5921ZM24.9434 27.7706H22.5586C22.6252 22.6831 22.6252 16.2163 30.4477 11.0515C30.6496 10.899 30.5486 10.5531 30.3123 10.5917C15.342 13.2322 14.1324 24.707 14.1002 27.7341H11.6166C10.8775 27.7341 10.4414 28.731 10.9119 29.3798L16.9877 38.096C17.1249 38.314 17.3151 38.4935 17.5405 38.618C17.7659 38.7425 18.0192 38.8077 18.2768 38.8077C18.5343 38.8077 18.7876 38.7425 19.013 38.618C19.2384 38.4935 19.4286 38.314 19.5658 38.096L25.6459 29.3798C26.0756 28.7675 25.6781 27.7749 24.9391 27.7749L24.9434 27.7706Z" fill="white"/>
    </g>
    <defs>
        <clipPath id="clip0_1301_85">
            <rect width="55" height="55" fill="white"/>
        </clipPath>
    </defs>
</svg>
