<svg xmlns="http://www.w3.org/2000/svg" width="16" height="13" viewBox="0 0 16 13" fill="none">
  <g filter="url(#filter0_i_39_157)">
    <path fill-rule="evenodd" clip-rule="evenodd" d="M16 0.571429V12C16 12.3155 15.7441 12.5714 15.4286 12.5714H0.571429C0.255893 12.5714 0 12.3155 0 12V0.571429C0 0.255893 0.255893 0 0.571429 0H15.4286C15.7441 0 16 0.255893 16 0.571429Z" fill="url(#paint0_linear_39_157)"/>
  </g>
  <path d="M0 11H16V12C16 12.5523 15.5523 13 15 13H1C0.447715 13 0 12.5523 0 12V11Z" fill="url(#paint1_linear_39_157)"/>
  <path d="M10.6086 6.3912H8.39138V8.6088C8.39138 8.82491 8.21612 9 8.00001 9C7.7839 9 7.60864 8.82491 7.60864 8.6088V6.3912H5.39138C5.17509 6.3912 5 6.21611 5 6C5 5.78397 5.17511 5.6088 5.39138 5.6088H7.60862V3.3912C7.60862 3.17517 7.78389 3 7.99999 3C8.2161 3 8.39137 3.17518 8.39137 3.3912V5.60881H10.6086C10.8249 5.60881 11 5.78397 11 5.99999C11 6.21609 10.8249 6.39118 10.6086 6.39118L10.6086 6.3912Z" fill="white"/>
  <defs>
    <filter id="filter0_i_39_157" x="0" y="0" width="16" height="13.5714" filterUnits="userSpaceOnUse" color-interpolation-filters="sRGB">
      <feFlood flood-opacity="0" result="BackgroundImageFix"/>
      <feBlend mode="normal" in="SourceGraphic" in2="BackgroundImageFix" result="shape"/>
      <feColorMatrix in="SourceAlpha" type="matrix" values="0 0 0 0 0 0 0 0 0 0 0 0 0 0 0 0 0 0 127 0" result="hardAlpha"/>
      <feOffset dy="1"/>
      <feGaussianBlur stdDeviation="0.5"/>
      <feComposite in2="hardAlpha" operator="arithmetic" k2="-1" k3="1"/>
      <feColorMatrix type="matrix" values="0 0 0 0 0.501961 0 0 0 0 0.913725 0 0 0 0 0.933333 0 0 0 1 0"/>
      <feBlend mode="normal" in2="shape" result="effect1_innerShadow_39_157"/>
    </filter>
    <linearGradient id="paint0_linear_39_157" x1="1.72331e-08" y1="3.39529" x2="16" y2="9.17614" gradientUnits="userSpaceOnUse">
      <stop stop-color="#38D5E2"/>
      <stop offset="1" stop-color="#0F7EC4"/>
    </linearGradient>
    <linearGradient id="paint1_linear_39_157" x1="0" y1="12" x2="16" y2="12" gradientUnits="userSpaceOnUse">
      <stop stop-color="#2D7997"/>
      <stop offset="1" stop-color="#053B60"/>
    </linearGradient>
  </defs>
</svg>