<svg xmlns="http://www.w3.org/2000/svg" width="16" height="18" viewBox="0 0 16 18" fill="none">
<path d="M12 0V3.23494C12 3.65727 12.3445 4 12.774 4H16L12 0Z" fill="#053B60"/>
<path fill-rule="evenodd" clip-rule="evenodd" d="M11.0193 3.30304C11.0193 4.17724 11.7518 4.88697 12.654 4.88922V4.88697H16V16.6031C16 17.3759 15.3536 18 14.5583 18H1.44165C0.644092 18 0 17.3736 0 16.6031V1.39692C0 0.624108 0.646418 0 1.44165 0H11.0193V3.30304Z" fill="url(#paint0_linear_37_111)"/>
<path d="M10.9878 12.1702V12.3086C10.9878 12.3463 10.9878 12.384 10.9756 12.4217C10.9756 12.4595 10.9756 12.4972 10.9634 12.5349C10.8172 13.4153 10.1228 14.1322 9.4039 14.1322C8.68504 14.1322 8.23424 13.4153 8.39263 12.5349C8.55102 11.6546 9.23332 10.9377 9.95218 10.9377C9.98873 10.9377 10.0131 10.9503 10.0375 10.9503V7.07658L5.62687 7.84377V13.0254C5.62687 13.1512 5.62687 13.277 5.6025 13.4027C5.45629 14.2831 4.7618 15 4.04295 15C3.3241 15 2.87329 14.2831 3.03168 13.4027C3.19007 12.5224 3.87237 11.8055 4.59123 11.8055C4.62778 11.8055 4.65215 11.8181 4.67652 11.8181V7.42873C4.67652 7.18977 4.84709 6.97596 5.07859 6.93823L10.4395 6.00755C10.5736 5.98239 10.7198 6.02012 10.8294 6.12074C10.9391 6.22135 11 6.34712 11 6.49804L10.9878 12.1702Z" fill="white"/>
<defs>
<linearGradient id="paint0_linear_37_111" x1="-1.44824e-07" y1="1.24822" x2="15.4959" y2="17.2403" gradientUnits="userSpaceOnUse">
<stop stop-color="#38D5E2"/>
<stop offset="1" stop-color="#0F7EC4"/>
</linearGradient>
</defs>
</svg>