<svg xmlns="http://www.w3.org/2000/svg" width="16" height="16" viewBox="0 0 16 16" fill="none">
  <path d="M15.3071 3.60506L14.8271 3V4.65478H1.1729V3L0.692918 3.60506C0.212941 4.2113 -0.1379 4.37171 0.0529482 5.6644C0.246082 6.95709 1.1729 13.9808 1.30089 14.9503C1.46088 16 2.2917 16 2.2917 16H13.6763C13.6763 16 14.5071 16 14.6671 14.9503C14.7951 13.9819 15.7219 6.95709 15.9471 5.6644C16.1379 4.37289 15.7871 4.2113 15.3071 3.60506ZM11.2456 9.13673C11.2456 9.13673 11.2456 10.1864 10.4456 10.1864H5.5544C4.75444 10.1864 4.75444 9.13673 4.75444 9.13673V7.07739H5.90524V8.73453H10.1268V7.07739H11.2776L11.2456 9.13673Z" fill="#0C59A3"/>
  <path d="M13.1231 2C13.1231 2 13.9663 2 13.9663 3H14V4H2V3C2 2 2.8432 2 2.8432 2H13.1231Z" fill="#1493DF"/>
  <path d="M4.78784 0H11.1806C11.1806 0 11.9685 0 12 1H4C4 0 4.78784 0 4.78784 0Z" fill="#3CCBF4"/>
</svg>