<svg xmlns="http://www.w3.org/2000/svg" width="20" height="18" viewBox="0 0 20 18" fill="none">
<path fill-rule="evenodd" clip-rule="evenodd" d="M16.1949 4.47187L18.0775 3.74367C19.0103 3.38297 20 4.10766 20 5.15109V12.8503C20 13.8926 19.0103 14.6173 18.0775 14.2566L16.1949 13.5284C16.1409 13.5075 16.0829 13.5006 16.0259 13.5083C15.9689 13.516 15.9145 13.538 15.8673 13.5726C15.8201 13.6071 15.7815 13.653 15.7549 13.7066C15.7283 13.7601 15.7143 13.8195 15.7143 13.8799V14.25C15.7143 14.7425 15.6219 15.2301 15.4424 15.6851C15.2629 16.14 14.9999 16.5534 14.6682 16.9016C14.3366 17.2499 13.9429 17.5261 13.5096 17.7145C13.0763 17.903 12.6119 18 12.1429 18H5C3.67392 18 2.40215 17.4469 1.46447 16.4623C0.526784 15.4777 0 14.1424 0 12.75V5.25C0 3.85761 0.526784 2.52226 1.46447 1.53769C2.40215 0.553123 3.67392 0 5 0H12.1429C12.6119 0 13.0763 0.0969966 13.5096 0.285452C13.9429 0.473907 14.3366 0.75013 14.6682 1.09835C14.9999 1.44657 15.2629 1.85997 15.4424 2.31494C15.6219 2.76991 15.7143 3.25754 15.7143 3.75V4.12031C15.7143 4.18069 15.7283 4.24017 15.7549 4.29368C15.7815 4.34719 15.8201 4.39316 15.8673 4.42767C15.9145 4.46219 15.9689 4.48423 16.0259 4.49193C16.0829 4.49962 16.1409 4.49274 16.1949 4.47187Z" fill="url(#paint0_linear_36_101)"/>
<path d="M9.64428 5.40047V4.40303C9.64428 4.0743 9.37929 3.94033 9.1876 4.0743L6.33698 5.98531C6.29788 6.01007 6.26563 6.04422 6.24318 6.08463C6.22072 6.12505 6.20877 6.17044 6.20843 6.21666C6.20843 6.30954 6.25692 6.39622 6.33698 6.44801L9.1876 8.36465C9.27781 8.42206 9.39339 8.42713 9.48811 8.37816C9.5343 8.35519 9.57329 8.32 9.60083 8.27642C9.62837 8.23285 9.6434 8.18256 9.64428 8.13105V7.47303C9.64428 7.39535 9.67811 7.32105 9.73675 7.26814C9.76663 7.24184 9.80147 7.22176 9.83923 7.2091C9.87699 7.19644 9.91691 7.19144 9.95663 7.1944C11.5409 7.33963 12.849 8.44739 13.2002 9.94187C13.2586 9.69353 13.2879 9.43929 13.2876 9.18422C13.2763 7.3492 11.8138 5.82658 9.91604 5.67347C9.84422 5.67174 9.77585 5.64237 9.7252 5.5915C9.67456 5.54062 9.64557 5.47218 9.64428 5.40047ZM7.91001 12.7501V13.8646C7.91074 13.9156 7.92555 13.9654 7.95281 14.0085C7.98007 14.0516 8.01871 14.0864 8.06449 14.1089C8.11099 14.1324 8.16284 14.1433 8.21488 14.1405C8.26691 14.1378 8.31731 14.1214 8.36105 14.0932L11.2235 12.1703C11.26 12.1451 11.2899 12.1114 11.3105 12.0722C11.3311 12.0329 11.3419 11.9892 11.3419 11.9449C11.3419 11.9006 11.3311 11.8569 11.3105 11.8176C11.2899 11.7784 11.26 11.7447 11.2235 11.7195L8.36105 9.79664C8.31798 9.76667 8.26764 9.74877 8.21529 9.74481C8.16293 9.74085 8.11047 9.75097 8.06336 9.77413C8.01717 9.79652 7.97826 9.8315 7.95113 9.87502C7.92399 9.91855 7.90974 9.96884 7.91001 10.0201V10.6883C7.91076 10.7269 7.9032 10.7652 7.88783 10.8007C7.87246 10.8361 7.84965 10.8678 7.82092 10.8937C7.79159 10.9201 7.75714 10.9402 7.71971 10.9528C7.68228 10.9654 7.64265 10.9702 7.60329 10.9669C6.01786 10.8245 4.70701 9.71671 4.3535 8.21999C4.29536 8.46834 4.26623 8.72259 4.26667 8.97764C4.29035 10.8014 5.75118 12.3083 7.63825 12.4552C7.71313 12.4592 7.78344 12.4924 7.83421 12.5475C7.88498 12.6026 7.91218 12.6753 7.91001 12.7501Z" fill="white"/>
<defs>
<linearGradient id="paint0_linear_36_101" x1="1.42857" y1="4.40649e-07" x2="19.4072" y2="17.1225" gradientUnits="userSpaceOnUse">
<stop stop-color="#34C1F1"/>
<stop offset="0.999122" stop-color="#0082FC"/>
</linearGradient>
</defs>
</svg>